<svg width="24" height="24" viewBox="0 0 24 24" fill="none" xmlns="http://www.w3.org/2000/svg">
<path fill-rule="evenodd" clip-rule="evenodd" d="M6 5C5.44772 5 5 5.44772 5 6V18C5 18.5523 5.44772 19 6 19H8C8.55228 19 9 18.5523 9 18V6C9 5.44772 8.55228 5 8 5H6ZM3 6C3 4.34315 4.34315 3 6 3H8C9.65685 3 11 4.34315 11 6V18C11 19.6569 9.65685 21 8 21H6C4.34315 21 3 19.6569 3 18V6Z" fill="#F2F2F2"/>
<path fill-rule="evenodd" clip-rule="evenodd" d="M16 5C15.4477 5 15 5.44772 15 6V18C15 18.5523 15.4477 19 16 19H18C18.5523 19 19 18.5523 19 18V6C19 5.44772 18.5523 5 18 5H16ZM13 6C13 4.34315 14.3431 3 16 3H18C19.6569 3 21 4.34315 21 6V18C21 19.6569 19.6569 21 18 21H16C14.3431 21 13 19.6569 13 18V6Z" fill="#F2F2F2"/>
</svg>
