<svg width="24" height="24" viewBox="0 0 24 24" fill="none" xmlns="http://www.w3.org/2000/svg">
<path fill-rule="evenodd" clip-rule="evenodd" d="M10 3C10 2.44772 10.4477 2 11 2H16C17.0609 2 18.0783 2.42143 18.8284 3.17157C19.5786 3.92172 20 4.93913 20 6V17C20 17.5523 19.5523 18 19 18C18.4477 18 18 17.5523 18 17V6C18 5.46957 17.7893 4.96086 17.4142 4.58579C17.0391 4.21071 16.5304 4 16 4H11C10.4477 4 10 3.55228 10 3ZM8 8C7.46957 8 6.96086 8.21071 6.58579 8.58579C6.21071 8.96086 6 9.46957 6 10V19.2338L9.4855 17.1425C9.80219 16.9525 10.1978 16.9525 10.5145 17.1425L14 19.2338V10C14 9.46957 13.7893 8.96086 13.4142 8.58579C13.0391 8.21071 12.5304 8 12 8H8ZM5.17157 7.17157C5.92172 6.42143 6.93913 6 8 6H12C13.0609 6 14.0783 6.42143 14.8284 7.17157C15.5786 7.92172 16 8.93913 16 10V21C16 21.3603 15.8062 21.6927 15.4927 21.8702C15.1792 22.0477 14.7944 22.0429 14.4855 21.8575L10 19.1662L5.5145 21.8575C5.20556 22.0429 4.82081 22.0477 4.5073 21.8702C4.19379 21.6927 4 21.3603 4 21V10C4 8.93913 4.42143 7.92172 5.17157 7.17157Z" fill="#F2F2F2"/>
</svg>
