<svg width="24" height="24" viewBox="0 0 24 24" fill="none" xmlns="http://www.w3.org/2000/svg">
<path fill-rule="evenodd" clip-rule="evenodd" d="M4.58579 3.58581C4.96086 3.21074 5.46957 3.00003 6 3.00003H8C8.35412 3.00003 8.69855 3.09394 9 3.26797C9.30145 3.09394 9.64588 3.00003 10 3.00003H12C12.5304 3.00003 13.0391 3.21074 13.4142 3.58581C13.7893 3.96088 14 4.46959 14 5.00003V19C14 19.5305 13.7893 20.0392 13.4142 20.4142C13.0391 20.7893 12.5304 21 12 21H10C9.64589 21 9.30145 20.9061 9 20.7321C8.69855 20.9061 8.35411 21 8 21H6C5.46957 21 4.96086 20.7893 4.58579 20.4142C4.21071 20.0392 4 19.5305 4 19V5.00003C4 4.46959 4.21071 3.96088 4.58579 3.58581ZM6 9.00003V19H8V9.00003H6ZM8 7.00003H6L6 5.00003L8 5.00003V7.00003ZM10 15H12V5.00003L10 5.00003V15ZM12 17H10V19H12V17Z" fill="#F2F2F2"/>
<path fill-rule="evenodd" clip-rule="evenodd" d="M16.2206 5.00237L14.0685 5.52463L14.0093 5.54287C14.0072 5.54458 14.0054 5.54673 14.0041 5.54918C14.002 5.55326 14.0014 5.55794 14.0023 5.56242L14.6222 7.81369L16.9143 7.24067L16.3049 5.02752C16.3049 5.02752 16.304 5.02475 16.3025 5.02289C16.3006 5.02041 16.2959 5.01562 16.2874 5.01077C16.2699 5.0008 16.2463 4.99632 16.2206 5.00237ZM17.4455 9.16943L15.1534 9.74246L16.5546 14.8308L18.8468 14.2581L17.4455 9.16943ZM19.3779 16.1869L17.0857 16.7595L17.6951 18.9725C17.6951 18.9725 17.696 18.9753 17.6975 18.9772C17.6994 18.9796 17.7041 18.9844 17.7126 18.9893C17.7301 18.9992 17.7531 19.0039 17.7789 18.9978L19.9315 18.4754L19.9907 18.4572C19.9928 18.4555 19.9946 18.4533 19.9959 18.4509C19.998 18.4468 19.9986 18.4421 19.9977 18.4376L19.3779 16.1869ZM18.2331 4.49653C17.9336 3.40786 16.8127 2.80323 15.7534 3.05769L13.5672 3.58823C13.5474 3.59302 13.5278 3.59842 13.5084 3.6044L13.3754 3.6454C13.3585 3.65063 13.3417 3.6563 13.325 3.66242C12.8526 3.83605 12.462 4.1798 12.2298 4.62634C11.9975 5.07288 11.9404 5.59003 12.0695 6.07651L15.7668 19.5031C16.0663 20.5918 17.1873 21.1968 18.2466 20.9424L18.2488 20.9418L20.4328 20.4118C20.4526 20.407 20.4722 20.4016 20.4916 20.3956L20.6246 20.3546C20.6415 20.3494 20.6583 20.3438 20.675 20.3376C21.1474 20.164 21.538 19.8203 21.7702 19.3737C22.0025 18.9272 22.0596 18.41 21.9305 17.9235L18.2331 4.49653Z" fill="#F2F2F2"/>
</svg>
