<svg width="24" height="24" viewBox="0 0 24 24" fill="none" xmlns="http://www.w3.org/2000/svg">
<path fill-rule="evenodd" clip-rule="evenodd" d="M11.8787 3.87868C12.4413 3.31607 13.2044 3 14 3C14.7956 3 15.5587 3.31607 16.1213 3.87868C16.4407 4.19808 16.6807 4.5821 16.8284 5H20C20.5523 5 21 5.44772 21 6C21 6.55228 20.5523 7 20 7H16.8284C16.6807 7.4179 16.4407 7.80192 16.1213 8.12132C15.5587 8.68393 14.7956 9 14 9C13.2044 9 12.4413 8.68393 11.8787 8.12132C11.5593 7.80192 11.3193 7.4179 11.1716 7H4C3.44772 7 3 6.55228 3 6C3 5.44772 3.44772 5 4 5H11.1716C11.3193 4.5821 11.5593 4.19808 11.8787 3.87868ZM14 5C13.7348 5 13.4804 5.10536 13.2929 5.29289C13.1054 5.48043 13 5.73478 13 6C13 6.26522 13.1054 6.51957 13.2929 6.70711C13.4804 6.89464 13.7348 7 14 7C14.2652 7 14.5196 6.89464 14.7071 6.70711C14.8946 6.51957 15 6.26522 15 6C15 5.73478 14.8946 5.48043 14.7071 5.29289C14.5196 5.10536 14.2652 5 14 5ZM5.87868 9.87868C6.44129 9.31607 7.20435 9 8 9C8.79565 9 9.55871 9.31607 10.1213 9.87868C10.4407 10.1981 10.6807 10.5821 10.8284 11H20C20.5523 11 21 11.4477 21 12C21 12.5523 20.5523 13 20 13H10.8284C10.6807 13.4179 10.4407 13.8019 10.1213 14.1213C9.55871 14.6839 8.79565 15 8 15C7.20435 15 6.44129 14.6839 5.87868 14.1213C5.55927 13.8019 5.31933 13.4179 5.17157 13H4C3.44772 13 3 12.5523 3 12C3 11.4477 3.44772 11 4 11H5.17157C5.31933 10.5821 5.55927 10.1981 5.87868 9.87868ZM8 11C7.73478 11 7.48043 11.1054 7.29289 11.2929C7.10536 11.4804 7 11.7348 7 12C7 12.2652 7.10536 12.5196 7.29289 12.7071C7.48043 12.8946 7.73478 13 8 13C8.26522 13 8.51957 12.8946 8.70711 12.7071C8.89464 12.5196 9 12.2652 9 12C9 11.7348 8.89464 11.4804 8.70711 11.2929C8.51957 11.1054 8.26522 11 8 11ZM14.8787 15.8787C15.4413 15.3161 16.2043 15 17 15C17.7957 15 18.5587 15.3161 19.1213 15.8787C19.4407 16.1981 19.6807 16.5821 19.8284 17H20C20.5523 17 21 17.4477 21 18C21 18.5523 20.5523 19 20 19H19.8284C19.6807 19.4179 19.4407 19.8019 19.1213 20.1213C18.5587 20.6839 17.7957 21 17 21C16.2043 21 15.4413 20.6839 14.8787 20.1213C14.5593 19.8019 14.3193 19.4179 14.1716 19H4C3.44772 19 3 18.5523 3 18C3 17.4477 3.44772 17 4 17H14.1716C14.3193 16.5821 14.5593 16.1981 14.8787 15.8787ZM17 17C16.7348 17 16.4804 17.1054 16.2929 17.2929C16.1054 17.4804 16 17.7348 16 18C16 18.2652 16.1054 18.5196 16.2929 18.7071C16.4804 18.8946 16.7348 19 17 19C17.2652 19 17.5196 18.8946 17.7071 18.7071C17.8946 18.5196 18 18.2652 18 18C18 17.7348 17.8946 17.4804 17.7071 17.2929C17.5196 17.1054 17.2652 17 17 17Z" fill="#F2F2F2"/>
</svg>
