<svg width="24" height="24" viewBox="0 0 24 24" fill="none" xmlns="http://www.w3.org/2000/svg">
<path fill-rule="evenodd" clip-rule="evenodd" d="M12 7.00001C12.5523 7.00001 13 7.44772 13 8.00001V11.5858L14.7071 13.2929C15.0976 13.6834 15.0976 14.3166 14.7071 14.7071C14.3166 15.0976 13.6834 15.0976 13.2929 14.7071L11.2929 12.7071C11.1054 12.5196 11 12.2652 11 12V8.00001C11 7.44772 11.4477 7.00001 12 7.00001Z" fill="#F2F2F2"/>
<path fill-rule="evenodd" clip-rule="evenodd" d="M17.2638 5.88449C15.7828 4.59207 13.8778 3.89012 11.9123 3.91257C9.94681 3.93502 8.05837 4.6803 6.60729 6.0062C5.1562 7.33211 4.24405 9.14584 4.04486 11.1013C3.98889 11.6508 3.49811 12.0508 2.94867 11.9949C2.39922 11.9389 1.99918 11.4481 2.05515 10.8987C2.30414 8.45429 3.44433 6.18713 5.25819 4.52974C7.07204 2.87236 9.43259 1.94076 11.8895 1.9127C14.3463 1.88464 16.7275 2.76207 18.5788 4.3776C20.43 5.99312 21.6217 8.23364 21.9265 10.6717C22.2312 13.1098 21.6277 15.5747 20.2311 17.5962C18.8345 19.6177 16.7425 21.0543 14.3544 21.6318C11.9662 22.2094 9.44894 21.8875 7.28293 20.7276C6.01023 20.0461 4.91113 19.1033 4.05 17.9733V20C4.05 20.5523 3.60229 21 3.05 21C2.49772 21 2.05 20.5523 2.05 20V15C2.05 14.4477 2.49772 14 3.05 14H3.52668C3.54221 13.9996 3.5577 13.9996 3.57316 14H8.05C8.60229 14 9.05 14.4477 9.05 15C9.05 15.5523 8.60229 16 8.05 16H5.12698C5.86649 17.244 6.93494 18.2726 8.22707 18.9645C9.95989 19.8924 11.9737 20.1499 13.8842 19.6879C15.7948 19.2258 17.4683 18.0766 18.5856 16.4594C19.7029 14.8422 20.1857 12.8702 19.9419 10.9198C19.6981 8.96933 18.7447 7.17691 17.2638 5.88449Z" fill="#F2F2F2"/>
</svg>
