<svg width="24" height="24" viewBox="0 0 24 24" fill="none" xmlns="http://www.w3.org/2000/svg">
<path d="M6.707 8.29303C6.89447 8.48056 6.99979 8.73487 6.99979 9.00003C6.99979 9.26519 6.89447 9.5195 6.707 9.70703L5.415 11H13C13.2652 11 13.5196 11.1054 13.7071 11.2929C13.8946 11.4805 14 11.7348 14 12C14 12.2652 13.8946 12.5196 13.7071 12.7071C13.5196 12.8947 13.2652 13 13 13H5.415L6.707 14.293C6.87918 14.4652 6.98261 14.6943 6.99789 14.9373C7.01317 15.1804 6.93925 15.4206 6.79 15.613L6.707 15.707C6.51947 15.8945 6.26516 15.9998 6 15.9998C5.73484 15.9998 5.48053 15.8945 5.293 15.707L2.293 12.707C2.25794 12.6721 2.22552 12.6347 2.196 12.595L2.125 12.485L2.071 12.371L2.036 12.266L2.011 12.148L2.004 12.09L2 12L2.003 11.925L2.02 11.799L2.05 11.688L2.094 11.577L2.146 11.479L2.213 11.383L2.293 11.293L5.293 8.29303C5.48053 8.10556 5.73484 8.00024 6 8.00024C6.26516 8.00024 6.51947 8.10556 6.707 8.29303ZM19 9.00003C19.7956 9.00003 20.5587 9.3161 21.1213 9.87871C21.6839 10.4413 22 11.2044 22 12C22 12.7957 21.6839 13.5587 21.1213 14.1214C20.5587 14.684 19.7956 15 19 15C18.2044 15 17.4413 14.684 16.8787 14.1214C16.3161 13.5587 16 12.7957 16 12C16 11.2044 16.3161 10.4413 16.8787 9.87871C17.4413 9.3161 18.2044 9.00003 19 9.00003Z" fill="#F2F2F2"/>
</svg>
