<svg width="24" height="24" viewBox="0 0 24 24" fill="none" xmlns="http://www.w3.org/2000/svg">
<path fill-rule="evenodd" clip-rule="evenodd" d="M17.7071 6.29289C18.0976 6.68342 18.0976 7.31658 17.7071 7.70711L12.7071 12.7071C12.3166 13.0976 11.6834 13.0976 11.2929 12.7071C10.9024 12.3166 10.9024 11.6834 11.2929 11.2929L16.2929 6.29289C16.6834 5.90237 17.3166 5.90237 17.7071 6.29289ZM22.7071 6.29289C23.0976 6.68342 23.0976 7.31658 22.7071 7.70711L12.7071 17.7071C12.3166 18.0976 11.6834 18.0976 11.2929 17.7071L6.29289 12.7071C5.90237 12.3166 5.90237 11.6834 6.29289 11.2929C6.68342 10.9024 7.31658 10.9024 7.70711 11.2929L12 15.5858L21.2929 6.29289C21.6834 5.90237 22.3166 5.90237 22.7071 6.29289ZM1.29289 11.2929C1.68342 10.9024 2.31658 10.9024 2.70711 11.2929L7.70711 16.2929C8.09763 16.6834 8.09763 17.3166 7.70711 17.7071C7.31658 18.0976 6.68342 18.0976 6.29289 17.7071L1.29289 12.7071C0.902369 12.3166 0.902369 11.6834 1.29289 11.2929Z" fill="#F2F2F2"/>
</svg>
