<svg width="24" height="24" viewBox="0 0 24 24" fill="none" xmlns="http://www.w3.org/2000/svg">
<path d="M18.707 8.29303L21.707 11.293C21.743 11.3284 21.7753 11.3657 21.804 11.405L21.875 11.515L21.929 11.629L21.964 11.734L21.994 11.882L22 12L21.997 12.075L21.98 12.201L21.95 12.312L21.906 12.423L21.854 12.521L21.78 12.625L21.707 12.707L18.707 15.707C18.5184 15.8892 18.2658 15.99 18.0036 15.9877C17.7414 15.9854 17.4906 15.8803 17.3052 15.6948C17.1198 15.5094 17.0146 15.2586 17.0123 14.9964C17.01 14.7342 17.1108 14.4816 17.293 14.293L18.585 13H11C10.7348 13 10.4804 12.8947 10.2929 12.7071C10.1054 12.5196 10 12.2652 10 12C10 11.7348 10.1054 11.4805 10.2929 11.2929C10.4804 11.1054 10.7348 11 11 11H18.585L17.293 9.70703C17.1208 9.53484 17.0174 9.30574 17.0021 9.06271C16.9868 8.81969 17.0607 8.57943 17.21 8.38703L17.293 8.29303C17.4805 8.10556 17.7348 8.00024 18 8.00024C18.2652 8.00024 18.5195 8.10556 18.707 8.29303ZM5 9.00003C5.79565 9.00003 6.55871 9.3161 7.12132 9.87871C7.68393 10.4413 8 11.2044 8 12C8 12.7957 7.68393 13.5587 7.12132 14.1214C6.55871 14.684 5.79565 15 5 15C4.20435 15 3.44129 14.684 2.87868 14.1214C2.31607 13.5587 2 12.7957 2 12C2 11.2044 2.31607 10.4413 2.87868 9.87871C3.44129 9.3161 4.20435 9.00003 5 9.00003Z" fill="#F2F2F2"/>
</svg>
