<svg width="24" height="24" viewBox="0 0 24 24" fill="none" xmlns="http://www.w3.org/2000/svg">
<path fill-rule="evenodd" clip-rule="evenodd" d="M13.0251 3.00034C13.1481 2.46192 13.6842 2.12513 14.2227 2.2481C16.4316 2.75261 18.4039 3.99214 19.8165 5.76377C21.2291 7.53539 21.9984 9.73413 21.9984 12C21.9984 14.2659 21.2291 16.4646 19.8165 18.2362C18.4039 20.0079 16.4316 21.2474 14.2227 21.7519C13.6842 21.8749 13.1481 21.5381 13.0251 20.9997C12.9021 20.4612 13.2389 19.9251 13.7773 19.8021C15.5447 19.3985 17.1226 18.4068 18.2528 16.9894C19.383 15.572 19.9984 13.8128 19.9984 12C19.9984 10.1872 19.383 8.42805 18.2528 7.01064C17.1226 5.59323 15.5447 4.60153 13.7773 4.1979C13.2389 4.07493 12.9021 3.53876 13.0251 3.00034ZM10.9749 3.00044C11.0978 3.53888 10.761 4.07501 10.2226 4.19792C9.23826 4.42261 8.3054 4.83159 7.47322 5.40325C7.018 5.71597 6.39546 5.60044 6.08274 5.14522C5.77003 4.69 5.88556 4.06746 6.34078 3.75474C7.381 3.04016 8.54708 2.52894 9.77744 2.24808C10.3159 2.12516 10.852 2.46201 10.9749 3.00044ZM4.67767 6.6453C5.16075 6.91297 5.33537 7.52158 5.0677 8.00467L4.90458 8.29904C4.52348 9.02939 4.25167 9.82555 4.11011 10.6661C4.01839 11.2107 3.50253 11.5778 2.95792 11.4861C2.4133 11.3944 2.04616 10.8785 2.13789 10.3339C2.31567 9.27834 2.65799 8.27799 3.1381 7.36111L3.1493 7.34033L3.3183 7.03533C3.58597 6.55225 4.19458 6.37763 4.67767 6.6453ZM3.0736 13.5405C3.60405 13.3868 4.15871 13.6922 4.31246 14.2226C4.55054 15.044 4.91877 15.8218 5.40313 16.5266C5.71594 16.9818 5.60055 17.6043 5.14539 17.9171C4.69024 18.2299 4.06768 18.1146 3.75487 17.6594C3.14941 16.7784 2.68913 15.8061 2.39153 14.7794C2.23778 14.2489 2.54315 13.6943 3.0736 13.5405ZM6.65265 19.3103C6.92753 18.8313 7.53868 18.6658 8.0177 18.9407C8.70575 19.3355 9.44869 19.6258 10.2221 19.802C10.7606 19.9247 11.0977 20.4607 10.975 20.9991C10.8523 21.5376 10.3163 21.8747 9.77785 21.752C8.81103 21.5317 7.88235 21.1689 7.02229 20.6753C6.54327 20.4005 6.37778 19.7893 6.65265 19.3103Z" fill="#F2F2F2"/>
</svg>
