<svg width="24" height="24" viewBox="0 0 24 24" fill="none" xmlns="http://www.w3.org/2000/svg">
<path fill-rule="evenodd" clip-rule="evenodd" d="M6.72636 2.00525C7.20295 1.96202 7.68296 2.03343 8.12632 2.21352C8.1694 2.23102 8.21121 2.2515 8.25145 2.27482L20.4937 9.37032C20.9583 9.62962 21.3457 10.0079 21.616 10.4664C21.8882 10.928 22.0317 11.4541 22.0317 11.99C22.0317 12.5259 21.8882 13.052 21.616 13.5136C21.3457 13.9721 20.9584 14.3504 20.4937 14.6097L8.25145 21.7052C8.21081 21.7287 8.16856 21.7494 8.12502 21.767C7.67127 21.9506 7.1795 22.0203 6.6926 21.9702C6.2057 21.92 5.73847 21.7515 5.33166 21.4793C4.92485 21.2071 4.59082 20.8395 4.35871 20.4086C4.1266 19.9777 4.00345 19.4965 4.00002 19.007L3.99999 19V5.00001C3.99999 4.98173 4.00048 4.96356 4.00145 4.94552C3.99954 4.91027 3.99946 4.87457 4.00132 4.83852C4.02596 4.36061 4.16457 3.89553 4.40557 3.48211C4.64658 3.06869 4.98299 2.71891 5.38671 2.462C5.79044 2.20508 6.24977 2.04847 6.72636 2.00525ZM5.99849 4.94476C5.99949 4.96305 5.99999 4.98147 5.99999 5.00001V18.9959C6.0016 19.1581 6.04262 19.3174 6.11953 19.4602C6.1969 19.6038 6.30825 19.7264 6.44385 19.8171C6.57945 19.9078 6.7352 19.964 6.8975 19.9807C7.04036 19.9954 7.18449 19.9792 7.32012 19.9333L19.4985 12.8748L19.5159 12.865C19.6722 12.7785 19.8025 12.6518 19.8932 12.4979C19.9839 12.344 20.0317 12.1686 20.0317 11.99C20.0317 11.8114 19.9839 11.636 19.8932 11.4821C19.8025 11.3283 19.6722 11.2015 19.5159 11.115L19.4985 11.1052L7.3194 4.04626C7.1871 4.00126 7.04662 3.98441 6.90701 3.99707C6.74815 4.01148 6.59504 4.06368 6.46047 4.14932C6.32589 4.23496 6.21375 4.35155 6.13342 4.48936C6.05308 4.62716 6.00688 4.78219 5.99867 4.94149C5.99861 4.94258 5.99855 4.94367 5.99849 4.94476Z" fill="#F2F2F2"/>
</svg>
